# xmcd
#
# Track frame offsets:
#	150
#	14744
#	35235
#	54873
#	78733
#	101063
#	121054
#	143998
#	167343
#	188035
#	216100
#	238364
#	262246
#	274312
#	298425
#	313624
#	334798
#
# Disc length: 4707 seconds
#
# Revision: 1
# Processed by: cddbd v1.5.2PL0 Copyright (c) Steve Scherf et al.
# Submitted via: audiograbber 1.83.01
#
DISCID=10126111
DTITLE=Mark Knopfler - Greatest Hits 1/2
DYEAR=2015
DGENRE=Blues
TTITLE0=Redbud Tree
TTITLE1=Border Reiver
TTITLE2=True love will never fade
TTITLE3=Kingdom of gold
TTITLE4=What it is
TTITLE5=Darling Pretty
TTITLE6=Remembrance Day
TTITLE7=The Traweler's Song
TTITLE8=This is us
TTITLE9=Why aye man
TTITLE10=Golden Heart
TTITLE11=Let it all go
TTITLE12=Say too much
TTITLE13=Nobody's got the gun
TTITLE14=The last laugh
TTITLE15=Metroland
TTITLE16=Poor Boy Blues
EXTD=
EXTT0=
EXTT1=
EXTT2=
EXTT3=
EXTT4=
EXTT5=
EXTT6=
EXTT7=
EXTT8=
EXTT9=
EXTT10=
EXTT11=
EXTT12=
EXTT13=
EXTT14=
EXTT15=
EXTT16=
PLAYORDER=
